{"title":"Before.We.Go.2014.WEBRip.XViD.AC3-Sorrow","uid":12146290,"size":1372040085,"categoryP":"video","categoryS":"movies","magnet":"?xt=urn:btih:3171733cc72ca079d640b1f5fcbbae47045055bd&amp;dn=Before.We.Go.2014.WEBRip.XViD.AC3-Sorrow&amp;tr=udp%3A%2F%2Ftracker.openbittorrent.com%3A80&amp;tr=udp%3A%2F%2Fopen.demonii.com%3A1337&amp;tr=udp%3A%2F%2Ftracker.coppersurfer.tk%3A6969&amp;tr=udp%3A%2F%2Fexodus.desync.com%3A6969","seeders":0,"leechers":1,"uploader":null,"files":3,"time":1437438100,"description":"[img]http://i.imgur.com/CvNkTaZ.jpg[/img]\n\n\nBefore.We.Go.2014.WEBRip.XViD.AC3-Sorrow\n\nGeneral\nComplete name                            : Before.We.Go.2014.WEBRip.XViD.AC3-Sorrow.avi\nFormat                                   : AVI\nFormat/Info                              : Audio Video Interleave\nFile size                                : 1.25 GiB\nDuration                                 : 1h 35mn\nOverall bit rate                         : 1 875 Kbps\nWriting application                      : Lavf55.19.104\nWriting library                          : \n\nVideo\nID                                       : 0\nFormat                                   : MPEG-4 Visual\nFormat profile                           : Simple@L3\nFormat settings, BVOP                    : No\nFormat settings, QPel                    : No\nFormat settings, GMC                     : No warppoints\nFormat settings, Matrix                  : Default (H.263)\nCodec ID                                 : XVID\nCodec ID/Hint                            : XviD\nDuration                                 : 1h 35mn\nBit rate                                 : 1 416 Kbps\nWidth                                    : 720 pixels\nHeight                                   : 384 pixels\nDisplay aspect ratio                     : 1.85:1\nFrame rate                               : 23.976 fps\nColor space                              : YUV\nChroma subsampling                       : 4:2:0\nBit depth                                : 8 bits\nScan type                                : Progressive\nCompression mode                         : Lossy\nBits/(Pixel*Frame)                       : 0.214\nStream size                              : 966 MiB (76%)\nWriting library                          : XviD 64\n\nAudio\nID                                       : 1\nFormat                                   : AC-3\nFormat/Info                              : Audio Coding 3\nMode extension                           : CM (complete main)\nFormat settings, Endianness              : Big\nCodec ID                                 : 2000\nDuration                                 : 1h 35mn\nBit rate mode                            : Constant\nBit rate                                 : 448 Kbps\nChannel count                            : 2 channels\nChannel positions                        : Front: L R\nSampling rate                            : 48.0 KHz\nBit depth                                : 16 bits\nCompression mode                         : Lossy\nStream size                              : 306 MiB (24%)\nAlignment                                : Aligned on interleaves\nInterleave, duration                     : 32 ms (0.77 video frame)\nInterleave, preload duration             : 512 ms\n\n\nSource:Before.We.Go.2014.720p.WEB-DL.DD5.1.H264-PLAYNOW\n\nSample:Included\n\nComedy:Drama:Romance\n\nA young woman in New York City races to catch the 1:30 Train to Boston. On the way she is robbed.\n\n\nDirector: Chris Evans \n\nWriters: Ronald Bass, Chris Shafer, 2 more credits Â» \n\nStars: Chris Evans, Alice Eve, Maria Breyman\n &lt;a href=&quot;\nhttp://www.imdb.com/title/tt0443465/&quot; rel=&quot;nofollow&quot; target=&quot;_NEW&quot;&gt;\nhttp://www.imdb.com/title/tt0443465/&lt;/a&gt;","torrent":{"xt":"urn:btih:3171733cc72ca079d640b1f5fcbbae47045055bd","amp;dn":"Before.We.Go.2014.WEBRip.XViD.AC3-Sorrow","amp;tr":["udp%3A%2F%2Ftracker.openbittorrent.com%3A80","udp%3A%2F%2Fopen.demonii.com%3A1337","udp%3A%2F%2Ftracker.coppersurfer.tk%3A6969","udp%3A%2F%2Fexodus.desync.com%3A6969"],"infoHash":"3171733cc72ca079d640b1f5fcbbae47045055bd","infoHashBuffer":{"type":"Buffer","data":[49,113,115,60,199,44,160,121,214,64,177,245,252,187,174,71,4,80,85,189]},"announce":[],"urlList":[]}}